<?xml version="1.0" encoding="UTF-8" standalone="no"?>
<svg
   xmlns:dc="http://purl.org/dc/elements/1.1/"
   xmlns:cc="http://creativecommons.org/ns#"
   xmlns:rdf="http://www.w3.org/1999/02/22-rdf-syntax-ns#"
   xmlns:svg="http://www.w3.org/2000/svg"
   xmlns="http://www.w3.org/2000/svg"
   xmlns:sodipodi="http://sodipodi.sourceforge.net/DTD/sodipodi-0.dtd"
   xmlns:inkscape="http://www.inkscape.org/namespaces/inkscape"
   viewBox="0 0 88.999611 85.998871"
   x="0px"
   y="0px"
   version="1.1"
   id="svg8"
   sodipodi:docname="location-icon.svg"
   width="88.999611"
   height="85.998871"
   style="fill:none"
   inkscape:version="0.92.3 (2405546, 2018-03-11)">
  <metadata
     id="metadata14">
    <rdf:RDF>
      <cc:Work
         rdf:about="">
        <dc:format>image/svg+xml</dc:format>
        <dc:type
           rdf:resource="http://purl.org/dc/dcmitype/StillImage" />
        <dc:title></dc:title>
      </cc:Work>
    </rdf:RDF>
  </metadata>
  <defs
     id="defs12" />
  <sodipodi:namedview
     pagecolor="#ffffff"
     bordercolor="#666666"
     borderopacity="1"
     objecttolerance="10"
     gridtolerance="10"
     guidetolerance="10"
     inkscape:pageopacity="0"
     inkscape:pageshadow="2"
     inkscape:window-width="1853"
     inkscape:window-height="1025"
     id="namedview10"
     showgrid="false"
     inkscape:zoom="3.776"
     inkscape:cx="89.895537"
     inkscape:cy="18.452252"
     inkscape:window-x="67"
     inkscape:window-y="27"
     inkscape:window-maximized="1"
     inkscape:current-layer="svg8" />
  <path
     d="m 88.4683,0.56770966 c -0.271,-0.27715 -0.6223,-0.46428 -1.0052,-0.53558 -0.383,-0.0713 -0.779,-0.02327 -1.1332,0.13749 L 1.0975602,38.8808 c -0.36612005,0.1663 -0.66870005,0.4444 -0.86329005,0.7935 -0.1946,0.349 -0.27094,0.7507 -0.21783,1.1459 0.05311,0.3951 0.23289,0.7631 0.51291,1.0497 0.28003,0.2866 0.64555005,0.4767 1.04288005,0.5426 L 39.6797,48.732 44.0344,84.3603 c 0.0491,0.3981 0.2266,0.7699 0.5061,1.0603 0.2795,0.2903 0.6463,0.4837 1.0457,0.5515 0.3994,0.0677 0.8103,0.0062 1.1716,-0.1755 0.3613,-0.1817 0.6537,-0.4738 0.834,-0.833 L 88.8047,2.6917197 c 0.1722,-0.34511 0.2324,-0.73453 0.1722,-1.11481 C 88.9166,1.1966297 88.739,0.84411966 88.4683,0.56770966 Z M 83.0666,5.7542997 47.0171,77.7193 43.2494,46.9021 c -0.0511,-0.3988 -0.2302,-0.7709 -0.511,-1.0615 -0.2807,-0.2907 -0.6482,-0.4845 -1.0485,-0.5531 L 8.2383002,39.7374 Z"
     id="path2"
     style="fill:#417e65;fill-opacity:1"
     inkscape:connector-curvature="0" />
</svg>
