<?xml version="1.0" encoding="UTF-8" standalone="no"?>
<svg
   xmlns:dc="http://purl.org/dc/elements/1.1/"
   xmlns:cc="http://creativecommons.org/ns#"
   xmlns:rdf="http://www.w3.org/1999/02/22-rdf-syntax-ns#"
   xmlns:svg="http://www.w3.org/2000/svg"
   xmlns="http://www.w3.org/2000/svg"
   xmlns:sodipodi="http://sodipodi.sourceforge.net/DTD/sodipodi-0.dtd"
   xmlns:inkscape="http://www.inkscape.org/namespaces/inkscape"
   version="1.1"
   x="0px"
   y="0px"
   viewBox="0 0 90 56.000011"
   xml:space="preserve"
   id="svg8"
   sodipodi:docname="mail-icon.svg"
   width="90"
   height="56.000011"
   inkscape:version="0.92.3 (2405546, 2018-03-11)"><metadata
     id="metadata14"><rdf:RDF><cc:Work
         rdf:about=""><dc:format>image/svg+xml</dc:format><dc:type
           rdf:resource="http://purl.org/dc/dcmitype/StillImage" /><dc:title></dc:title></cc:Work></rdf:RDF></metadata><defs
     id="defs12" /><sodipodi:namedview
     pagecolor="#ffffff"
     bordercolor="#666666"
     borderopacity="1"
     objecttolerance="10"
     gridtolerance="10"
     guidetolerance="10"
     inkscape:pageopacity="0"
     inkscape:pageshadow="2"
     inkscape:window-width="1407"
     inkscape:window-height="793"
     id="namedview10"
     showgrid="false"
     inkscape:zoom="2.6700352"
     inkscape:cx="40.175266"
     inkscape:cy="21.300275"
     inkscape:window-x="67"
     inkscape:window-y="27"
     inkscape:window-maximized="0"
     inkscape:current-layer="svg8" /><g
     transform="translate(-5.0000001,-974.36219)"
     id="g4"
     style="fill:#417e65;fill-opacity:1"><path
       style="color:#000000;text-indent:0;text-transform:none;direction:ltr;baseline-shift:baseline;display:inline;overflow:visible;visibility:visible;fill:#417e65;fill-opacity:1;stroke:none;enable-background:accumulate"
       d="m 9.0000001,974.36219 c -2.1814,0 -4,1.8186 -4,4 v 48.00001 c 0,2.1814 1.8186,4 4,4 H 91 c 2.1814,0 4,-1.8186 4,-4 v -48.00001 c 0,-2.1814 -1.8186,-4 -4,-4 z m 3.3124999,4 h 75.375 l -35.75,30.46881 c -0.921,0.7848 -2.954,0.7848 -3.875,0 z m -3.3124999,2.4062 36.4687999,31.09381 c 2.5941,2.2105 6.4682,2.2105 9.0624,0 L 91,980.76839 v 45.59381 H 9.0000001 Z"
       marker="none"
       visibility="visible"
       display="inline"
       overflow="visible"
       id="path2-6"
       inkscape:connector-curvature="0" /></g></svg>