<?xml version="1.0" encoding="UTF-8" standalone="no"?>
<svg
   xmlns:dc="http://purl.org/dc/elements/1.1/"
   xmlns:cc="http://creativecommons.org/ns#"
   xmlns:rdf="http://www.w3.org/1999/02/22-rdf-syntax-ns#"
   xmlns:svg="http://www.w3.org/2000/svg"
   xmlns="http://www.w3.org/2000/svg"
   xmlns:sodipodi="http://sodipodi.sourceforge.net/DTD/sodipodi-0.dtd"
   xmlns:inkscape="http://www.inkscape.org/namespaces/inkscape"
   version="1.1"
   x="0px"
   y="0px"
   viewBox="0 0 83.290352 83.294998"
   xml:space="preserve"
   id="svg8"
   sodipodi:docname="phone-icon.svg"
   width="83.290352"
   height="83.294998"
   inkscape:version="0.92.3 (2405546, 2018-03-11)"><metadata
     id="metadata14"><rdf:RDF><cc:Work
         rdf:about=""><dc:format>image/svg+xml</dc:format><dc:type
           rdf:resource="http://purl.org/dc/dcmitype/StillImage" /><dc:title></dc:title></cc:Work></rdf:RDF></metadata><defs
     id="defs12" /><sodipodi:namedview
     pagecolor="#ffffff"
     bordercolor="#666666"
     borderopacity="1"
     objecttolerance="10"
     gridtolerance="10"
     guidetolerance="10"
     inkscape:pageopacity="0"
     inkscape:pageshadow="2"
     inkscape:window-width="1407"
     inkscape:window-height="793"
     id="namedview10"
     showgrid="false"
     inkscape:zoom="2.6700352"
     inkscape:cx="10.530872"
     inkscape:cy="36.745343"
     inkscape:window-x="67"
     inkscape:window-y="27"
     inkscape:window-maximized="0"
     inkscape:current-layer="svg8" /><path
     d="m 81.535353,63.975 -14.14,-14.14 c -2.34,-2.34 -6.14,-2.34 -8.48,0 l -7.78,7.78 -25.46,-25.45 7.78,-7.78 c 1.13,-1.13 1.76,-2.64 1.76,-4.24 0,-1.6 -0.62,-3.11 -1.76,-4.24 l -14.14,-14.15 c -2.34,-2.34 -6.15,-2.34 -8.48,0 l -6.4299997,6.43 c -3.3,3.3 -4.86000005,7.83 -4.29000005,12.45 1.66000005,13.41 9.69000005,28.18 22.02999975,40.52 12.33,12.33 27.1,20.36 40.51,22.02 0.63,0.08 1.25,0.12 1.87,0.12 3.95,0 7.73,-1.55 10.58,-4.4 l 6.43,-6.43 c 2.34,-2.34 2.34,-6.15 0,-8.49 z m -2.83,5.66 -6.43,6.43 c -2.42,2.42 -5.75,3.57 -9.13,3.15 -12.55,-1.55 -26.46,-9.17 -38.18,-20.89 -11.72,-11.72 -19.3299997,-25.64 -20.8799997,-38.19 -0.42,-3.38 0.73,-6.71 3.15,-9.13 l 6.4299997,-6.43 c 0.39,-0.39 0.9,-0.58 1.41,-0.58 0.51,0 1.02,0.19 1.41,0.58 l 14.14,14.14 c 0.78,0.78 0.78,2.05 0,2.83 l -9.19,9.19 c -0.38,0.38 -0.59,0.88 -0.59,1.41 0,0.53 0.21,1.04 0.59,1.41 l 28.28,28.28 c 0.78,0.78 2.05,0.78 2.83,0 l 9.19,-9.19 c 0.78,-0.78 2.05,-0.78 2.83,0 l 14.14,14.14 c 0.78,0.8 0.78,2.07 0,2.85 z"
     id="path2"
     inkscape:connector-curvature="0"
     style="fill:#417e65;fill-opacity:1" /></svg>